<svg xmlns="http://www.w3.org/2000/svg" xmlns:xlink="http://www.w3.org/1999/xlink" width="1801" zoomAndPan="magnify" viewBox="0 0 1350.75 353.999987" height="472" preserveAspectRatio="xMidYMid meet" version="1.0"><defs><g/></defs><g fill="#ffffff" fill-opacity="1"><g transform="translate(59.643685, 278.435934)"><g><path d="M 133.796875 -184.421875 L 179.703125 -184.421875 L 179.703125 -44.921875 C 179.703125 -36.554688 177.640625 -28.90625 173.515625 -21.96875 C 169.398438 -15.039062 163.875 -9.515625 156.9375 -5.390625 C 150.007812 -1.273438 142.296875 0.78125 133.796875 0.78125 L 133.796875 -109.859375 L 94.953125 -63.375 L 55.71875 -108.09375 L 55.71875 -44.921875 C 55.71875 -36.554688 53.65625 -28.90625 49.53125 -21.96875 C 45.414062 -15.039062 39.890625 -9.515625 32.953125 -5.390625 C 26.023438 -1.273438 18.375 0.78125 10 0.78125 L 10 -138.90625 C 10 -147.40625 12.023438 -155.117188 16.078125 -162.046875 C 20.140625 -168.984375 25.632812 -174.507812 32.5625 -178.625 C 39.5 -182.75 47.21875 -184.8125 55.71875 -184.8125 L 94.953125 -126.546875 Z M 133.796875 -184.421875 "/></g></g></g><g fill="#ffffff" fill-opacity="1"><g transform="translate(249.358712, 278.435934)"><g><path d="M 141.453125 -167.9375 C 143.410156 -164.925781 144.910156 -161.6875 145.953125 -158.21875 C 147.003906 -154.757812 147.53125 -151.195312 147.53125 -147.53125 L 147.53125 -37.28125 C 147.53125 -29.957031 145.664062 -23.414062 141.9375 -17.65625 C 138.207031 -11.90625 133.269531 -7.265625 127.125 -3.734375 C 120.976562 -0.203125 114.113281 1.890625 106.53125 2.546875 C 104.300781 2.679688 100.929688 2.84375 96.421875 3.03125 C 91.910156 3.226562 87.363281 3.359375 82.78125 3.421875 C 78.207031 3.492188 74.613281 3.53125 72 3.53125 C 68.207031 3.53125 64.546875 3.429688 61.015625 3.234375 C 57.484375 3.035156 54.082031 2.804688 50.8125 2.546875 C 45.1875 2.023438 39.851562 0.847656 34.8125 -0.984375 C 29.78125 -2.816406 25.4375 -5.5625 21.78125 -9.21875 C 18.894531 -11.570312 16.929688 -14.054688 15.890625 -16.671875 C 13.929688 -19.679688 12.425781 -22.921875 11.375 -26.390625 C 10.332031 -29.859375 9.8125 -33.488281 9.8125 -37.28125 L 9.8125 -147.53125 C 9.8125 -154.726562 11.671875 -161.203125 15.390625 -166.953125 C 19.117188 -172.710938 24.085938 -177.359375 30.296875 -180.890625 C 36.515625 -184.421875 43.351562 -186.507812 50.8125 -187.15625 C 58.007812 -187.8125 65.398438 -188.140625 72.984375 -188.140625 C 75.460938 -188.140625 78.957031 -188.109375 83.46875 -188.046875 C 87.988281 -187.984375 92.40625 -187.882812 96.71875 -187.75 C 101.03125 -187.625 104.300781 -187.425781 106.53125 -187.15625 C 112.28125 -186.632812 117.640625 -185.457031 122.609375 -183.625 C 127.585938 -181.800781 131.90625 -179.054688 135.5625 -175.390625 C 138.4375 -173.035156 140.398438 -170.550781 141.453125 -167.9375 Z M 106.53125 -49.828125 L 106.53125 -135.953125 C 106.132812 -138.960938 104.957031 -141.445312 103 -143.40625 C 101.039062 -145.375 98.425781 -146.359375 95.15625 -146.359375 L 62.1875 -146.546875 C 58.914062 -146.546875 56.332031 -145.566406 54.4375 -143.609375 C 52.539062 -141.648438 51.332031 -139.097656 50.8125 -135.953125 L 50.8125 -49.828125 C 51.207031 -46.691406 52.382812 -44.175781 54.34375 -42.28125 C 56.300781 -40.382812 58.914062 -39.4375 62.1875 -39.4375 L 95.15625 -39.234375 L 95.15625 -39.4375 C 98.425781 -39.4375 101.039062 -40.382812 103 -42.28125 C 104.957031 -44.175781 106.132812 -46.691406 106.53125 -49.828125 Z M 106.53125 -49.828125 "/></g></g></g><g fill="#ffffff" fill-opacity="1"><g transform="translate(406.898694, 278.435934)"><g><path d="M 107.515625 -160.484375 L 150.28125 -1.375 C 142.957031 0.457031 135.859375 0.457031 128.984375 -1.375 C 122.117188 -3.207031 116.203125 -6.441406 111.234375 -11.078125 C 106.265625 -15.722656 102.929688 -21.445312 101.234375 -28.25 L 99.078125 -37.078125 L 98.296875 -41.390625 L 53.5625 -41.390625 L 52.578125 -37.078125 L 50.421875 -28.25 C 48.722656 -21.445312 45.421875 -15.722656 40.515625 -11.078125 C 35.609375 -6.441406 29.722656 -3.207031 22.859375 -1.375 C 15.992188 0.457031 8.832031 0.457031 1.375 -1.375 L 44.140625 -160.484375 C 46.492188 -170.023438 51.988281 -177.285156 60.625 -182.265625 C 65.457031 -185.003906 70.554688 -186.375 75.921875 -186.375 C 81.285156 -186.375 86.320312 -185.003906 91.03125 -182.265625 C 99.789062 -177.285156 105.285156 -170.023438 107.515625 -160.484375 Z M 91.421875 -74.546875 L 75.921875 -134 L 60.421875 -74.546875 Z M 91.421875 -74.546875 "/></g></g></g><g fill="#ffffff" fill-opacity="1"><g transform="translate(559.337726, 278.435934)"><g><path d="M 53.171875 -184.421875 L 53.171875 -43.15625 L 127.921875 -43.15625 C 127.921875 -35.3125 126.117188 -28.085938 122.515625 -21.484375 C 118.921875 -14.878906 114.113281 -9.644531 108.09375 -5.78125 C 102.082031 -1.925781 95.476562 0 88.28125 0 L 9.8125 0 C 9.8125 -0.132812 9.84375 -0.234375 9.90625 -0.296875 C 9.96875 -0.359375 10 -0.390625 10 -0.390625 C 10 -0.390625 9.9375 -0.390625 9.8125 -0.390625 L 9.8125 -144.78125 C 9.8125 -152.101562 11.769531 -158.738281 15.6875 -164.6875 C 19.613281 -170.644531 24.847656 -175.421875 31.390625 -179.015625 C 37.929688 -182.617188 45.191406 -184.421875 53.171875 -184.421875 Z M 53.171875 -184.421875 "/></g></g></g><g fill="#ffffff" fill-opacity="1"><g transform="translate(697.454945, 278.435934)"><g><path d="M 119.671875 -101.828125 C 124.898438 -97.503906 128.757812 -92.367188 131.25 -86.421875 C 133.738281 -80.472656 134.984375 -74.097656 134.984375 -67.296875 L 134.984375 -50.8125 C 134.984375 -45.1875 134 -39.429688 132.03125 -33.546875 C 130.070312 -27.660156 127.195312 -22.195312 123.40625 -17.15625 C 119.613281 -12.125 115 -8.039062 109.5625 -4.90625 C 104.132812 -1.769531 97.890625 -0.203125 90.828125 -0.203125 L 53.171875 -0.203125 C 48.847656 -0.203125 45.117188 -0.722656 41.984375 -1.765625 C 38.847656 -2.804688 36.101562 -4.113281 33.75 -5.6875 C 30.601562 -3.46875 27.003906 -1.769531 22.953125 -0.59375 C 18.898438 0.582031 14.519531 1.171875 9.8125 1.171875 L 9.8125 -144.78125 C 9.8125 -151.976562 11.378906 -158.550781 14.515625 -164.5 C 17.648438 -170.457031 22.03125 -175.265625 27.65625 -178.921875 C 33.28125 -182.585938 39.890625 -184.550781 47.484375 -184.8125 C 48.003906 -184.8125 48.523438 -184.8125 49.046875 -184.8125 L 78.078125 -184.8125 C 84.222656 -184.8125 90.269531 -183.566406 96.21875 -181.078125 C 102.175781 -178.597656 107.570312 -175.132812 112.40625 -170.6875 C 117.25 -166.238281 121.140625 -161.101562 124.078125 -155.28125 C 127.023438 -149.457031 128.5 -143.210938 128.5 -136.546875 C 128.5 -129.878906 128.269531 -124.710938 127.8125 -121.046875 C 127.351562 -117.378906 126.734375 -114.53125 125.953125 -112.5 C 125.171875 -110.476562 124.222656 -108.75 123.109375 -107.3125 C 121.992188 -105.875 120.847656 -104.046875 119.671875 -101.828125 Z M 77.109375 -149.109375 L 49.4375 -149.109375 L 49.4375 -110.84375 L 78.078125 -110.84375 C 81.609375 -110.84375 84.613281 -112.082031 87.09375 -114.5625 C 89.582031 -117.050781 90.828125 -120.0625 90.828125 -123.59375 L 90.828125 -136.546875 C 90.828125 -139.941406 89.421875 -142.882812 86.609375 -145.375 C 83.804688 -147.863281 80.640625 -149.109375 77.109375 -149.109375 Z M 97.109375 -51.796875 L 97.109375 -62 C 97.109375 -66.175781 95.539062 -69.832031 92.40625 -72.96875 C 89.269531 -76.113281 85.671875 -77.554688 81.609375 -77.296875 L 49.4375 -77.296875 L 49.4375 -37.859375 C 49.4375 -37.597656 49.4375 -37.335938 49.4375 -37.078125 C 49.4375 -36.816406 49.4375 -36.617188 49.4375 -36.484375 L 81.609375 -36.484375 C 85.671875 -36.617188 89.269531 -38.15625 92.40625 -41.09375 C 95.539062 -44.039062 97.109375 -47.609375 97.109375 -51.796875 Z M 97.109375 -51.796875 "/></g></g></g><g fill="#ffffff" fill-opacity="1"><g transform="translate(842.242664, 278.435934)"><g><path d="M 141.453125 -167.9375 C 143.410156 -164.925781 144.910156 -161.6875 145.953125 -158.21875 C 147.003906 -154.757812 147.53125 -151.195312 147.53125 -147.53125 L 147.53125 -37.28125 C 147.53125 -29.957031 145.664062 -23.414062 141.9375 -17.65625 C 138.207031 -11.90625 133.269531 -7.265625 127.125 -3.734375 C 120.976562 -0.203125 114.113281 1.890625 106.53125 2.546875 C 104.300781 2.679688 100.929688 2.84375 96.421875 3.03125 C 91.910156 3.226562 87.363281 3.359375 82.78125 3.421875 C 78.207031 3.492188 74.613281 3.53125 72 3.53125 C 68.207031 3.53125 64.546875 3.429688 61.015625 3.234375 C 57.484375 3.035156 54.082031 2.804688 50.8125 2.546875 C 45.1875 2.023438 39.851562 0.847656 34.8125 -0.984375 C 29.78125 -2.816406 25.4375 -5.5625 21.78125 -9.21875 C 18.894531 -11.570312 16.929688 -14.054688 15.890625 -16.671875 C 13.929688 -19.679688 12.425781 -22.921875 11.375 -26.390625 C 10.332031 -29.859375 9.8125 -33.488281 9.8125 -37.28125 L 9.8125 -147.53125 C 9.8125 -154.726562 11.671875 -161.203125 15.390625 -166.953125 C 19.117188 -172.710938 24.085938 -177.359375 30.296875 -180.890625 C 36.515625 -184.421875 43.351562 -186.507812 50.8125 -187.15625 C 58.007812 -187.8125 65.398438 -188.140625 72.984375 -188.140625 C 75.460938 -188.140625 78.957031 -188.109375 83.46875 -188.046875 C 87.988281 -187.984375 92.40625 -187.882812 96.71875 -187.75 C 101.03125 -187.625 104.300781 -187.425781 106.53125 -187.15625 C 112.28125 -186.632812 117.640625 -185.457031 122.609375 -183.625 C 127.585938 -181.800781 131.90625 -179.054688 135.5625 -175.390625 C 138.4375 -173.035156 140.398438 -170.550781 141.453125 -167.9375 Z M 106.53125 -49.828125 L 106.53125 -135.953125 C 106.132812 -138.960938 104.957031 -141.445312 103 -143.40625 C 101.039062 -145.375 98.425781 -146.359375 95.15625 -146.359375 L 62.1875 -146.546875 C 58.914062 -146.546875 56.332031 -145.566406 54.4375 -143.609375 C 52.539062 -141.648438 51.332031 -139.097656 50.8125 -135.953125 L 50.8125 -49.828125 C 51.207031 -46.691406 52.382812 -44.175781 54.34375 -42.28125 C 56.300781 -40.382812 58.914062 -39.4375 62.1875 -39.4375 L 95.15625 -39.234375 L 95.15625 -39.4375 C 98.425781 -39.4375 101.039062 -40.382812 103 -42.28125 C 104.957031 -44.175781 106.132812 -46.691406 106.53125 -49.828125 Z M 106.53125 -49.828125 "/></g></g></g><g fill="#ffffff" fill-opacity="1"><g transform="translate(999.782668, 278.435934)"><g><path d="M 107.515625 -160.484375 L 150.28125 -1.375 C 142.957031 0.457031 135.859375 0.457031 128.984375 -1.375 C 122.117188 -3.207031 116.203125 -6.441406 111.234375 -11.078125 C 106.265625 -15.722656 102.929688 -21.445312 101.234375 -28.25 L 99.078125 -37.078125 L 98.296875 -41.390625 L 53.5625 -41.390625 L 52.578125 -37.078125 L 50.421875 -28.25 C 48.722656 -21.445312 45.421875 -15.722656 40.515625 -11.078125 C 35.609375 -6.441406 29.722656 -3.207031 22.859375 -1.375 C 15.992188 0.457031 8.832031 0.457031 1.375 -1.375 L 44.140625 -160.484375 C 46.492188 -170.023438 51.988281 -177.285156 60.625 -182.265625 C 65.457031 -185.003906 70.554688 -186.375 75.921875 -186.375 C 81.285156 -186.375 86.320312 -185.003906 91.03125 -182.265625 C 99.789062 -177.285156 105.285156 -170.023438 107.515625 -160.484375 Z M 91.421875 -74.546875 L 75.921875 -134 L 60.421875 -74.546875 Z M 91.421875 -74.546875 "/></g></g></g><g fill="#ffffff" fill-opacity="1"><g transform="translate(1152.221722, 278.435934)"><g><path d="M 53.171875 -184.421875 L 53.171875 -43.15625 L 127.921875 -43.15625 C 127.921875 -35.3125 126.117188 -28.085938 122.515625 -21.484375 C 118.921875 -14.878906 114.113281 -9.644531 108.09375 -5.78125 C 102.082031 -1.925781 95.476562 0 88.28125 0 L 9.8125 0 C 9.8125 -0.132812 9.84375 -0.234375 9.90625 -0.296875 C 9.96875 -0.359375 10 -0.390625 10 -0.390625 C 10 -0.390625 9.9375 -0.390625 9.8125 -0.390625 L 9.8125 -144.78125 C 9.8125 -152.101562 11.769531 -158.738281 15.6875 -164.6875 C 19.613281 -170.644531 24.847656 -175.421875 31.390625 -179.015625 C 37.929688 -182.617188 45.191406 -184.421875 53.171875 -184.421875 Z M 53.171875 -184.421875 "/></g></g></g><path stroke-linecap="butt" transform="matrix(0.749861, 0, 0, 0.749861, 59.643685, 294.131729)" fill="none" stroke-linejoin="miter" d="M 0.00112865 2.001815 L 1641.164266 2.001815 " stroke="#ffffff" stroke-width="4" stroke-opacity="1" stroke-miterlimit="4"/></svg>